<?xml version="1.0" encoding="utf-8"?>
<!-- Generator: Adobe Illustrator 24.1.1, SVG Export Plug-In . SVG Version: 6.00 Build 0)  -->
<svg version="1.1" id="Layer_1" xmlns="http://www.w3.org/2000/svg" xmlns:xlink="http://www.w3.org/1999/xlink" x="0px" y="0px"
	 viewBox="0 0 245 92.1" style="enable-background:new 0 0 245 92.1;" xml:space="preserve">
<style type="text/css">
	.st0{enable-background:new    ;}
	.st1{fill:#FFFFFF;}
</style>
<g class="st0">
	<path class="st1" d="M80.3,40c-0.3-0.8-0.6-1.7-0.9-2.5s-0.6-1.6-0.9-2.5h-8.7L68.1,40h-2.8c0.7-2,1.4-3.9,2.1-5.6
		c0.6-1.7,1.3-3.4,1.9-4.9c0.6-1.6,1.2-3,1.8-4.5c0.6-1.4,1.2-2.8,1.9-4.2h2.5c0.7,1.4,1.3,2.8,1.9,4.2c0.6,1.4,1.2,2.9,1.8,4.5
		c0.6,1.6,1.3,3.2,1.9,4.9c0.6,1.7,1.3,3.6,2.1,5.6H80.3z M77.8,32.9c-0.6-1.6-1.2-3.2-1.8-4.7c-0.6-1.5-1.2-3-1.8-4.3
		c-0.6,1.4-1.3,2.8-1.8,4.3c-0.6,1.5-1.2,3.1-1.7,4.7H77.8z"/>
</g>
<g class="st0">
	<path class="st1" d="M93.6,40.4c-1.4,0-2.6-0.2-3.7-0.7c-1.1-0.4-2.1-1.1-2.9-1.9c-0.8-0.9-1.4-1.9-1.8-3.1s-0.7-2.7-0.7-4.3
		s0.2-3,0.7-4.3c0.5-1.2,1.2-2.3,2-3.1c0.8-0.9,1.8-1.5,2.9-1.9c1.1-0.4,2.3-0.7,3.6-0.7c0.8,0,1.5,0.1,2.2,0.2
		c0.6,0.1,1.2,0.2,1.7,0.4c0.5,0.1,0.9,0.3,1.2,0.4c0.3,0.1,0.5,0.3,0.6,0.3l-0.8,2.2c-0.2-0.1-0.4-0.2-0.7-0.4
		c-0.3-0.1-0.7-0.3-1.1-0.4c-0.4-0.1-0.8-0.2-1.3-0.3c-0.5-0.1-0.9-0.1-1.4-0.1c-1,0-1.9,0.2-2.7,0.5c-0.8,0.4-1.5,0.9-2.1,1.5
		c-0.6,0.7-1,1.5-1.3,2.4c-0.3,1-0.5,2-0.5,3.2c0,1.1,0.1,2.2,0.4,3.1s0.7,1.8,1.2,2.4c0.5,0.7,1.2,1.2,2,1.6
		c0.8,0.4,1.7,0.6,2.8,0.6c1.2,0,2.3-0.1,3.1-0.4c0.8-0.3,1.4-0.5,1.8-0.7l0.7,2.2c-0.1,0.1-0.4,0.2-0.7,0.3S98,39.8,97.5,40
		c-0.5,0.1-1.1,0.2-1.7,0.3S94.4,40.4,93.6,40.4z"/>
</g>
<g class="st0">
	<path class="st1" d="M116,40c-0.3-0.8-0.6-1.7-0.9-2.5s-0.6-1.6-0.9-2.5h-8.7l-1.7,4.9H101c0.7-2,1.4-3.9,2.1-5.6
		c0.6-1.7,1.3-3.4,1.9-4.9c0.6-1.6,1.2-3,1.8-4.5c0.6-1.4,1.2-2.8,1.9-4.2h2.5c0.7,1.4,1.3,2.8,1.9,4.2s1.2,2.9,1.8,4.5
		c0.6,1.6,1.3,3.2,1.9,4.9c0.6,1.7,1.3,3.6,2.1,5.6H116z M113.5,32.9c-0.6-1.6-1.2-3.2-1.8-4.7s-1.2-3-1.8-4.3
		c-0.6,1.4-1.3,2.8-1.8,4.3s-1.2,3.1-1.7,4.7H113.5z"/>
	<path class="st1" d="M137.4,30.4c0,1.7-0.3,3.1-0.8,4.3s-1.2,2.2-2.2,3.1c-0.9,0.8-2.1,1.4-3.4,1.8c-1.3,0.4-2.8,0.6-4.3,0.6
		c-0.8,0-1.6,0-2.6-0.1c-0.9-0.1-1.8-0.2-2.5-0.4V21.1c0.8-0.2,1.6-0.3,2.5-0.4c0.9-0.1,1.8-0.1,2.6-0.1c1.6,0,3,0.2,4.3,0.6
		s2.4,1,3.4,1.8s1.7,1.8,2.2,3.1S137.4,28.7,137.4,30.4z M126.9,37.8c2.6,0,4.5-0.7,5.7-2c1.3-1.3,1.9-3.1,1.9-5.5s-0.6-4.2-1.9-5.5
		c-1.3-1.3-3.2-2-5.7-2c-0.8,0-1.3,0-1.8,0c-0.4,0-0.7,0-0.9,0.1v14.7c0.2,0,0.5,0,0.9,0.1C125.5,37.8,126.1,37.8,126.9,37.8z"/>
	<path class="st1" d="M141.4,40V20.8h11.7v2.3h-9v5.7h8v2.2h-8v6.7h9.7V40H141.4z"/>
	<path class="st1" d="M165.8,37.4c-0.2-0.4-0.4-1-0.7-1.7c-0.3-0.7-0.6-1.4-1-2.2c-0.4-0.8-0.7-1.6-1.1-2.5
		c-0.4-0.8-0.8-1.6-1.1-2.4s-0.7-1.4-1-2c-0.3-0.6-0.6-1-0.7-1.4c-0.2,2.2-0.4,4.5-0.5,7.1c-0.1,2.5-0.2,5.1-0.3,7.7h-2.6
		c0.1-1.7,0.2-3.3,0.3-5c0.1-1.7,0.2-3.4,0.3-5c0.1-1.6,0.2-3.2,0.4-4.8c0.1-1.6,0.3-3,0.5-4.4h2.4c0.5,0.8,1,1.8,1.6,2.9
		c0.6,1.1,1.1,2.3,1.7,3.5c0.6,1.2,1.1,2.4,1.7,3.6c0.5,1.2,1,2.3,1.5,3.3c0.4-1,0.9-2.1,1.5-3.3c0.5-1.2,1.1-2.4,1.7-3.6
		c0.6-1.2,1.1-2.4,1.7-3.5s1.1-2.1,1.6-2.9h2.4c0.6,6.2,1.1,12.6,1.4,19.2h-2.6c-0.1-2.6-0.2-5.2-0.3-7.7c-0.1-2.5-0.3-4.9-0.5-7.1
		c-0.2,0.3-0.4,0.8-0.7,1.4c-0.3,0.6-0.6,1.3-1,2s-0.7,1.5-1.1,2.4c-0.4,0.8-0.8,1.7-1.1,2.5c-0.4,0.8-0.7,1.5-1,2.2
		c-0.3,0.7-0.6,1.2-0.7,1.7H165.8z"/>
	<path class="st1" d="M181.4,20.8h2.7V40h-2.7V20.8z"/>
	<path class="st1" d="M201.7,40c-0.3-0.8-0.6-1.7-0.9-2.5s-0.6-1.6-0.9-2.5h-8.7l-1.7,4.9h-2.8c0.7-2,1.4-3.9,2.1-5.6
		c0.6-1.7,1.3-3.4,1.9-4.9c0.6-1.6,1.2-3,1.8-4.5s1.2-2.8,1.9-4.2h2.5c0.7,1.4,1.3,2.8,1.9,4.2c0.6,1.4,1.2,2.9,1.8,4.5
		c0.6,1.6,1.3,3.2,1.9,4.9c0.6,1.7,1.3,3.6,2.1,5.6H201.7z M199.2,32.9c-0.6-1.6-1.2-3.2-1.8-4.7c-0.6-1.5-1.2-3-1.8-4.3
		c-0.6,1.4-1.3,2.8-1.8,4.3c-0.6,1.5-1.2,3.1-1.7,4.7H199.2z"/>
</g>
<g class="st0">
	<path class="st1" d="M75.8,69.8c-1.4,0-2.6-0.2-3.7-0.7c-1.1-0.4-2.1-1.1-2.9-1.9c-0.8-0.9-1.4-1.9-1.8-3.1
		c-0.4-1.2-0.7-2.7-0.7-4.3s0.2-3,0.7-4.3c0.5-1.2,1.2-2.3,2-3.1c0.8-0.9,1.8-1.5,2.9-1.9s2.3-0.7,3.6-0.7c0.8,0,1.5,0.1,2.2,0.2
		c0.6,0.1,1.2,0.2,1.7,0.4c0.5,0.1,0.9,0.3,1.2,0.4c0.3,0.1,0.5,0.3,0.6,0.3l-0.8,2.2c-0.2-0.1-0.4-0.2-0.7-0.4
		c-0.3-0.1-0.7-0.3-1.1-0.4c-0.4-0.1-0.8-0.2-1.3-0.3c-0.5-0.1-0.9-0.1-1.4-0.1c-1,0-1.9,0.2-2.7,0.5c-0.8,0.4-1.5,0.9-2.1,1.5
		c-0.6,0.7-1,1.5-1.3,2.4s-0.5,2-0.5,3.2c0,1.1,0.1,2.2,0.4,3.1c0.3,0.9,0.7,1.8,1.2,2.4c0.5,0.7,1.2,1.2,2,1.6
		c0.8,0.4,1.7,0.6,2.8,0.6c1.2,0,2.3-0.1,3.1-0.4c0.8-0.3,1.4-0.5,1.8-0.7l0.7,2.2c-0.1,0.1-0.4,0.2-0.7,0.3s-0.7,0.3-1.2,0.4
		s-1.1,0.2-1.7,0.3S76.5,69.8,75.8,69.8z"/>
</g>
<g class="st0">
	<path class="st1" d="M83.4,59.8c0-1.6,0.2-3.1,0.7-4.4c0.5-1.3,1.2-2.3,2-3.1s1.8-1.5,2.9-1.9s2.3-0.6,3.6-0.6
		c1.2,0,2.4,0.2,3.5,0.6c1.1,0.4,2.1,1.1,2.9,1.9c0.8,0.8,1.5,1.9,2,3.1c0.5,1.3,0.7,2.7,0.7,4.4s-0.2,3.1-0.7,4.4
		c-0.5,1.3-1.2,2.3-2,3.1c-0.8,0.8-1.8,1.5-2.9,1.9c-1.1,0.4-2.3,0.6-3.5,0.6c-1.3,0-2.4-0.2-3.6-0.6c-1.1-0.4-2.1-1.1-2.9-1.9
		s-1.5-1.9-2-3.1S83.4,61.4,83.4,59.8z M86.2,59.8c0,1.2,0.1,2.2,0.4,3.2c0.3,1,0.7,1.8,1.3,2.4c0.5,0.7,1.2,1.2,2,1.5
		c0.8,0.4,1.7,0.5,2.7,0.5c1,0,1.9-0.2,2.6-0.5c0.8-0.4,1.4-0.9,2-1.5c0.5-0.7,1-1.5,1.3-2.4c0.3-1,0.4-2,0.4-3.2
		c0-1.2-0.1-2.2-0.4-3.2c-0.3-1-0.7-1.8-1.3-2.4c-0.5-0.7-1.2-1.2-2-1.5c-0.8-0.4-1.7-0.5-2.6-0.5c-1,0-1.9,0.2-2.7,0.5
		c-0.8,0.4-1.5,0.9-2,1.5c-0.5,0.7-1,1.5-1.3,2.4C86.3,57.6,86.2,58.6,86.2,59.8z"/>
	<path class="st1" d="M114.4,66.7c-0.2-0.4-0.4-1-0.7-1.7s-0.6-1.4-1-2.2c-0.4-0.8-0.7-1.6-1.1-2.5c-0.4-0.8-0.8-1.6-1.1-2.4
		s-0.7-1.4-1-2s-0.6-1-0.7-1.4c-0.2,2.2-0.4,4.5-0.5,7.1c-0.1,2.5-0.2,5.1-0.3,7.7h-2.6c0.1-1.7,0.2-3.3,0.2-5
		c0.1-1.7,0.2-3.4,0.3-5c0.1-1.6,0.2-3.2,0.4-4.8c0.1-1.6,0.3-3,0.5-4.4h2.4c0.5,0.8,1,1.8,1.6,2.9c0.6,1.1,1.1,2.3,1.7,3.5
		c0.6,1.2,1.1,2.4,1.7,3.6c0.5,1.2,1,2.3,1.5,3.3c0.4-1,0.9-2.1,1.5-3.3c0.5-1.2,1.1-2.4,1.7-3.6c0.6-1.2,1.1-2.4,1.7-3.5
		s1.1-2.1,1.6-2.9h2.4c0.6,6.2,1.1,12.6,1.4,19.2H123c-0.1-2.6-0.2-5.2-0.3-7.7c-0.1-2.5-0.3-4.9-0.5-7.1c-0.2,0.3-0.4,0.8-0.7,1.4
		s-0.6,1.3-1,2c-0.4,0.7-0.7,1.5-1.1,2.4s-0.8,1.7-1.1,2.5c-0.4,0.8-0.7,1.5-1,2.2s-0.6,1.2-0.7,1.7H114.4z"/>
	<path class="st1" d="M135,50c2.7,0,4.8,0.5,6.2,1.5c1.5,1,2.2,2.6,2.2,4.6c0,1.1-0.2,2.1-0.6,2.8c-0.4,0.8-1,1.4-1.7,1.9
		s-1.7,0.8-2.7,1.1s-2.3,0.3-3.6,0.3h-2.1v7.1h-2.7v-19c0.8-0.2,1.6-0.3,2.5-0.4C133.4,50,134.2,50,135,50z M135.2,52.3
		c-1.1,0-2,0-2.6,0.1V60h2c0.9,0,1.8-0.1,2.5-0.2c0.7-0.1,1.4-0.3,1.9-0.6c0.5-0.3,0.9-0.7,1.2-1.2c0.3-0.5,0.4-1.1,0.4-1.9
		c0-0.7-0.1-1.3-0.4-1.8c-0.3-0.5-0.7-0.9-1.2-1.2c-0.5-0.3-1.1-0.5-1.7-0.6C136.6,52.4,135.9,52.3,135.2,52.3z"/>
	<path class="st1" d="M155,69.8c-1.4,0-2.6-0.2-3.7-0.7c-1.1-0.4-2.1-1.1-2.9-1.9c-0.8-0.9-1.4-1.9-1.8-3.1
		c-0.4-1.2-0.7-2.7-0.7-4.3s0.2-3,0.7-4.3c0.5-1.2,1.2-2.3,2-3.1c0.8-0.9,1.8-1.5,2.9-1.9c1.1-0.4,2.3-0.7,3.6-0.7
		c0.8,0,1.5,0.1,2.2,0.2c0.6,0.1,1.2,0.2,1.7,0.4c0.5,0.1,0.9,0.3,1.2,0.4c0.3,0.1,0.5,0.3,0.6,0.3l-0.8,2.2
		c-0.2-0.1-0.4-0.2-0.7-0.4c-0.3-0.1-0.7-0.3-1.1-0.4c-0.4-0.1-0.8-0.2-1.3-0.3c-0.5-0.1-0.9-0.1-1.4-0.1c-1,0-1.9,0.2-2.7,0.5
		c-0.8,0.4-1.5,0.9-2.1,1.5c-0.6,0.7-1,1.5-1.3,2.4s-0.5,2-0.5,3.2c0,1.1,0.1,2.2,0.4,3.1s0.7,1.8,1.2,2.4c0.5,0.7,1.2,1.2,2,1.6
		c0.8,0.4,1.7,0.6,2.8,0.6c1.2,0,2.3-0.1,3.1-0.4c0.8-0.3,1.4-0.5,1.8-0.7l0.7,2.2c-0.1,0.1-0.4,0.2-0.7,0.3s-0.7,0.3-1.2,0.4
		c-0.5,0.1-1.1,0.2-1.7,0.3S155.8,69.8,155,69.8z"/>
	<path class="st1" d="M164,69.4V50.2h11.7v2.3h-9v5.7h8v2.2h-8v6.7h9.7v2.3H164z"/>
	<path class="st1" d="M195.6,59.8c0,1.7-0.3,3.1-0.8,4.3s-1.2,2.2-2.2,3.1c-0.9,0.8-2.1,1.4-3.4,1.8c-1.3,0.4-2.8,0.6-4.3,0.6
		c-0.8,0-1.6,0-2.6-0.1c-0.9-0.1-1.8-0.2-2.5-0.4V50.5c0.8-0.2,1.6-0.3,2.5-0.4c0.9-0.1,1.8-0.1,2.6-0.1c1.6,0,3,0.2,4.3,0.6
		c1.3,0.4,2.4,1,3.4,1.8s1.7,1.8,2.2,3.1S195.6,58.1,195.6,59.8z M185.1,67.2c2.6,0,4.5-0.7,5.7-2c1.3-1.3,1.9-3.1,1.9-5.5
		s-0.6-4.2-1.9-5.5c-1.3-1.3-3.2-2-5.7-2c-0.8,0-1.3,0-1.8,0c-0.4,0-0.7,0-0.9,0.1v14.7c0.2,0,0.5,0,0.9,0.1
		C183.8,67.2,184.4,67.2,185.1,67.2z"/>
	<path class="st1" d="M199.6,69.4V50.2h11.7v2.3h-9v5.7h8v2.2h-8v6.7h9.7v2.3H199.6z"/>
</g>
<g class="st0">
	<path class="st1" d="M224.8,61.4c0.3,0.4,0.7,0.9,1.1,1.5c0.5,0.6,0.9,1.3,1.4,2c0.5,0.7,1,1.5,1.4,2.3c0.5,0.8,0.9,1.6,1.2,2.3
		h-2.9c-0.4-0.7-0.8-1.4-1.2-2.1s-0.9-1.4-1.3-2.1c-0.4-0.7-0.9-1.3-1.3-1.8c-0.4-0.6-0.8-1.1-1.2-1.5c-0.2,0-0.5,0-0.7,0
		s-0.5,0-0.8,0h-2.4v7.5h-2.7v-19c0.8-0.2,1.6-0.3,2.5-0.4c0.9-0.1,1.8-0.1,2.6-0.1c2.7,0,4.8,0.5,6.2,1.5s2.1,2.5,2.1,4.6
		c0,1.3-0.3,2.4-1,3.3C227.2,60.2,226.2,60.9,224.8,61.4z M220.8,52.3c-1.1,0-2,0-2.6,0.1v7.2h1.9c0.9,0,1.8,0,2.5-0.1
		c0.7-0.1,1.4-0.3,1.9-0.5c0.5-0.3,0.9-0.6,1.2-1.1c0.3-0.5,0.4-1.1,0.4-1.9c0-0.7-0.1-1.3-0.4-1.8c-0.3-0.5-0.7-0.9-1.1-1.1
		c-0.5-0.3-1-0.5-1.7-0.6C222.2,52.4,221.5,52.3,220.8,52.3z"/>
</g>
<g class="st0">
	<path class="st1" d="M242.7,63.2c0,0.9-0.1,1.8-0.3,2.6c-0.2,0.8-0.5,1.5-1,2.1c-0.5,0.6-1.1,1.1-2,1.4c-0.8,0.3-1.9,0.5-3.1,0.5
		c-0.6,0-1.2-0.1-1.7-0.2s-1-0.2-1.4-0.4s-0.8-0.3-1.1-0.5s-0.6-0.3-0.7-0.5l1.1-2.1c0.4,0.3,0.9,0.6,1.5,0.9
		c0.6,0.3,1.4,0.5,2.3,0.5c1.3,0,2.3-0.3,2.9-1c0.6-0.7,0.9-1.8,0.9-3.5V50.2h2.7V63.2z"/>
</g>
<path class="st1" d="M27.5,18.6L27.5,18.6c0.7,0.1,5.2,0.6,10.4,1.4v-8.4l-10.3,3.1l-12.2-3.6v9.2C21.2,19.3,26.7,18.7,27.5,18.6
	L27.5,18.6z"/>
<polygon class="st1" points="38,9.2 48.2,6.1 27.6,0 6.9,6.1 15.4,8.6 27.6,12.3 "/>
<path class="st1" d="M8.9,10.6L8.9,10.6c1.1,0,2,0.9,2,2v3.4c0,1.1-0.9,2-2,2h0c-1.1,0-2-0.9-2-2v-3.4C6.9,11.5,7.8,10.6,8.9,10.6z"
	/>
<path class="st1" d="M55,65l-0.1-37.7l-2-1.3c-3-1.4-9.3-2.6-14.9-3.5c-5.2-0.8-9.7-1.4-10.4-1.4h-0.1c-0.8,0.1-6.3,0.7-12.1,1.7
	c-5.1,0.9-10.5,2-13.2,3.2l-2,1.3L0.1,65c0,0-1.4,7.2,6.1,14.9c7.1,7.3,20,11.7,21.3,12.1h0.1c1.3-0.4,14.2-4.8,21.3-12.1
	C56.3,72.3,55,65,55,65z M42.4,68.8c-2.6,2.1-5.8,3.4-9.1,3.7c-0.7,0.1-1.4,0.1-2.1,0.1c-2.5,0-5.1-0.5-7.5-1.4
	c-4.6-1.6-8.4-5-10.6-9.4h0.1c-1.8-4-2.3-8.6-1.2-12.9c0.1-0.3,0.1-0.5,0.2-0.8v-0.1l0,0c0-0.2,0.1-0.3,0.1-0.5
	c2.1-7.3,8.7-12.3,16.3-12.5c5.7-0.2,9.1,0.6,13.1,3l0.8,0.5L39,46.3l-1-0.4c-7.5-3.4-11.9-3-15.3,1.5c-2.9,4-2.8,9.4,0.3,13.3
	c3.3,4,9,4.4,15.6,1l1-0.5l3.4,7.1L42.4,68.8z"/>
</svg>
