<svg xmlns="http://www.w3.org/2000/svg" viewBox="0 0 244.99 92.08"><defs><style>.cls-1{font-size:27.75px;font-family:Ubuntu-Regular, Ubuntu;}.cls-1,.cls-7{fill:#fff;}.cls-2{letter-spacing:-0.02em;}.cls-3{letter-spacing:0.02em;}.cls-4{letter-spacing:0em;}.cls-5{letter-spacing:-0.02em;}.cls-6{letter-spacing:0.02em;}</style></defs><title>Asset 1</title><g id="Layer_2" data-name="Layer 2"><g id="Layer_1-2" data-name="Layer 1"><text class="cls-1" transform="translate(65.1 40.03)"><tspan class="cls-2">A<tspan class="cls-3" x="17.87" y="0">C</tspan><tspan class="cls-4" x="35.68" y="0">ADEMIA</tspan></tspan><tspan class="cls-5" x="0" y="29.38">C</tspan><tspan x="16.65" y="29.38">OMPCEDE</tspan><tspan class="cls-6" x="147.95" y="29.38">R</tspan><tspan x="166.02" y="29.38">J</tspan></text><path class="cls-7" d="M27.53,18.56h0c.71.08,5.23.61,10.38,1.44V11.6L27.58,14.71,15.41,11.07v9.22c5.82-1,11.28-1.63,12.07-1.72Z"/><polygon class="cls-7" points="37.96 9.16 48.24 6.08 27.58 0 6.92 6.08 15.41 8.63 27.58 12.27 37.96 9.16"/><rect class="cls-7" x="6.92" y="10.59" width="3.99" height="7.34" rx="1.99"/><path class="cls-7" d="M55,65l-.1-37.65-2-1.26c-3-1.36-9.33-2.59-14.9-3.48-5.15-.82-9.67-1.36-10.38-1.44h-.1c-.79.09-6.25.74-12.07,1.72-5.11.86-10.49,2-13.21,3.2l-2,1.26L.1,65s-1.37,7.24,6.08,14.89c7.08,7.29,20.05,11.72,21.3,12.14h.1c1.25-.42,14.21-4.85,21.3-12.14C56.32,72.28,55,65,55,65ZM42.37,68.81a17.81,17.81,0,0,1-9.15,3.71,19.05,19.05,0,0,1-2.14.12,21,21,0,0,1-7.45-1.39,18.94,18.94,0,0,1-10.56-9.36h.06A20,20,0,0,1,11.9,49c.07-.25.13-.5.2-.75l0-.09h0c0-.17.09-.34.14-.51A17.31,17.31,0,0,1,28.5,35.15c5.7-.18,9.12.62,13.06,3.05l.8.49L39,46.29l-1-.44c-7.46-3.39-11.87-3-15.25,1.51A11.08,11.08,0,0,0,23,60.64c3.33,4,9,4.38,15.6,1l1-.49L43,68.27Z"/></g></g></svg>